<?xml version="1.0" encoding="utf-8"?>
<!-- Generator: Adobe Illustrator 21.1.0, SVG Export Plug-In . SVG Version: 6.00 Build 0)  -->
<svg version="1.1" id="Layer_1" xmlns="http://www.w3.org/2000/svg" xmlns:xlink="http://www.w3.org/1999/xlink" x="0px" y="0px"
	 viewBox="0 0 24 24" style="enable-background:new 0 0 24 24;" xml:space="preserve">
<style type="text/css">
	.st0{fill:#212121;}
</style>
<path class="st0" d="M19.6,11.4H4.4V5.1h15.2 M17.7,18.9c-1,0-1.9-0.9-1.9-1.9c0-1,0.9-1.9,1.9-1.9s1.9,0.9,1.9,1.9
	C19.6,18.1,18.7,18.9,17.7,18.9 M6.3,18.9c-1,0-1.9-0.9-1.9-1.9c0-1,0.9-1.9,1.9-1.9s1.9,0.9,1.9,1.9C8.2,18.1,7.3,18.9,6.3,18.9
	 M1.9,17.7c0,1.1,0.5,2.1,1.3,2.8v2.3c0,0.8,0.5,1.3,1.3,1.3h1.3c0.8,0,1.3-0.5,1.3-1.3v-1.3h10.1v1.3c0,0.8,0.5,1.3,1.3,1.3h1.3
	c0.8,0,1.3-0.5,1.3-1.3v-2.3c0.8-0.6,1.3-1.6,1.3-2.8V5.1C22.1,0.6,17.6,0,12,0S1.9,0.6,1.9,5.1V17.7z"/>
</svg>
