<?xml version="1.0" encoding="utf-8"?>
<!-- Generator: Adobe Illustrator 21.1.0, SVG Export Plug-In . SVG Version: 6.00 Build 0)  -->
<svg version="1.1" id="Layer_1" xmlns="http://www.w3.org/2000/svg" xmlns:xlink="http://www.w3.org/1999/xlink" x="0px" y="0px"
	 viewBox="0 0 24 24" style="enable-background:new 0 0 24 24;" xml:space="preserve">
<style type="text/css">
	.st0{fill:#212121;}
</style>
<path class="st0" d="M12,1.6L0,22.4h24L12,1.6z M12,12.4c-1.7,0-3.1,1.4-3.1,3.1s1.4,3.1,3.1,3.1c1.3,0,2.5-0.8,3-2.1H16
	c-0.5,1.8-2.1,3.1-4,3.1c-2.3,0-4.2-1.9-4.2-4.2s1.9-4.2,4.2-4.2c1.2,0,2.1,0.5,3,1.2l1.2-1.2v3.7h-3.7l1.7-1.7
	C13.7,12.8,12.8,12.4,12,12.4z"/>
</svg>
