<?xml version="1.0" encoding="utf-8"?>
<!-- Generator: Adobe Illustrator 21.1.0, SVG Export Plug-In . SVG Version: 6.00 Build 0)  -->
<svg version="1.1" id="Layer_1" xmlns="http://www.w3.org/2000/svg" xmlns:xlink="http://www.w3.org/1999/xlink" x="0px" y="0px"
	 viewBox="0 0 24 24" style="enable-background:new 0 0 24 24;" xml:space="preserve">
<style type="text/css">
	.st0{fill:#212121;}
</style>
<polygon class="st0" points="12,24 20.9,17.8 3.1,17.8 "/>
<g>
	<path class="st0" d="M20.5,3.3l-2.3,1.3c-0.7-1.1-1.4-1.9-2.3-2.3c-0.9-0.4-2.2-0.7-3.7-0.7c-1.6,0-2.9,0.2-3.9,0.8
		c-1,0.5-1.4,1.2-1.4,2c0,0.5,0.2,1,0.5,1.3s1,0.7,1.9,0.9s2.1,0.4,3.6,0.7c2.8,0.3,4.9,0.9,6.1,1.6s1.7,1.6,1.7,2.9
		c0,0.9-0.3,1.6-1,2.4c-0.7,0.7-1.6,1.2-2.9,1.6c-1.4,0.4-2.8,0.6-4.4,0.6c-2.2,0-4-0.3-5.6-1c-1.5-0.7-2.7-1.4-3.5-2.5l2.3-1.3
		c0.5,1,1.4,1.6,2.6,2.2s2.6,0.8,4.3,0.8s3.1-0.2,4-0.7s1.5-1.1,1.5-2c0-0.7-0.4-1.3-1.3-1.6c-0.9-0.4-2.4-0.8-4.7-1.1
		C9.2,8.9,7.1,8.3,5.9,7.6S4,6,4,4.8c0-0.9,0.3-1.6,1-2.4s1.6-1.3,2.8-1.7C9,0.3,10.4,0,12.1,0C16-0.1,18.8,1.1,20.5,3.3z"/>
</g>
</svg>
